<?xml version="1.0" encoding="UTF-8"?>
<svg id="Layer_1" xmlns="http://www.w3.org/2000/svg" version="1.1" viewBox="0 0 2967.69 1082.99">
  <!-- Generator: Adobe Illustrator 29.5.0, SVG Export Plug-In . SVG Version: 2.1.0 Build 137)  -->
  <defs>
    <style>
      .st0 {
        fill: #e62d26;
      }
    </style>
  </defs>
  <path d="M2257.74,390.14h-38.63c3.62-11.46,6.89-21.84,10.16-32.14h38.64c-3.26,10.56-6.41,20.78-9.82,31.82,12.93,0,25.04.15,37.15-.24,1.27-.04,2.93-3.17,3.54-5.12,7.94-26.01,15.28-52.21,23.72-78.07,4.96-15.2,10.79-30.26,17.61-44.76,15.75-33.41,43.15-50.81,79.41-54.67,11.66-1.23,23.48-1.77,35.22-1.81,75.97-.15,151.93-.26,227.9.11,12.84.07,25.92,1.49,38.46,4.25,24.87,5.48,35.87,21.67,34.25,47.18-.49,7.73-1.64,15.3-3.19,22.77-.89,4.27,2.34,8.29,6.71,8.29h102.01c3.08,0,5.81-2.05,6.63-5.02,6.41-23.25,11.17-46.81,12.02-71.1,1.84-52.82-21.56-85.39-72.07-100.54-27.71-8.31-56.23-10.68-84.91-10.75-83.83-.28-167.64-.22-251.47-.04-28.1.07-56.01,2.7-83.51,8.81-47.14,10.51-87.7,32.2-118.86,69.91-23.94,28.99-40.06,62.25-52.06,97.52-10.1,29.66-19.12,59.68-28.6,89.53-2.42,7.62-4.83,15.24-7.55,23.87h38.63c-3.17,10.96-6.07,20.96-9.2,31.75,8.25,0,15.48.11,22.69-.06,5.01-.11,10.01-.61,15-.95,1.71-4.43,3.6-8.81,5.07-13.3,1.79-5.38,3.2-10.86,5.07-17.24Z"/>
  <path d="M2695.65,466.85c-2.53,0-4.85,1.4-6.05,3.63-.29.55-.59,1.09-.89,1.64-14.96,27.13-38.57,42.31-68.94,46.68-13.15,1.9-26.53,2.96-39.82,3.02-74.79.28-149.58.41-224.36-.09-15.56-.11-31.41-1.81-46.56-5.25-23.03-5.24-34.17-21.71-31.62-45.33,1.75-16.25,5.44-32.27,8.39-49.15-.99-.06-3.19-.19-5.39-.24-10.94-.37-21.87-.71-32.81-1.06-2.98,11.16-5.96,22.34-8.79,32.98h-39.19c3.34-10.71,6.52-20.91,9.95-31.94-11.25,0-21.8.24-32.31-.11-4.7-.15-7.12,1.06-8.18,5.89-2.52,11.31-6.04,22.41-8.16,33.78-2.96,15.97-5.89,32.03-7.27,48.18-1.81,21.13.45,41.96,10.56,61.19,12.89,24.45,34.81,37.02,60.09,44.81,31.28,9.65,63.65,11.24,96.05,11.27,82.43.09,164.88-.07,247.31-.39,27.73-.11,55.19-3.26,82.21-9.69,45.2-10.75,83.94-32.25,113.85-68.44,18.06-21.84,31.85-46.07,42.5-71.84,1.87-4.53-1.45-9.53-6.35-9.53h-104.22Z"/>
  <g>
    <path d="M2496.12,835.44c-.42,12.07-3.3,23.69-6.85,35.17-6.03,19.5-11.83,39.08-18.14,58.49-4.52,13.88-10.99,26.86-20.37,38.21-11.72,14.18-26.89,22.6-44.6,26.81-10.58,2.52-21.34,3.75-32.21,3.8-32.29.12-64.6.19-96.89.15-12.69-.01-25.37-.64-37.63-4.42-9.91-3.05-18.49-7.98-23.54-17.56-3.96-7.53-4.85-15.69-4.14-23.97.54-6.33,1.69-12.62,2.85-18.88.83-4.45,2.21-8.8,3.2-13.23.42-1.89,1.37-2.37,3.2-2.31,4.12.14,8.25.04,12.66.04-1.34,4.32-2.59,8.31-3.9,12.51h15.35c1.11-4.17,2.28-8.55,3.45-12.92,4.28.14,8.57.27,12.85.42.86.02,1.72.07,2.11.09-1.15,6.61-2.6,12.89-3.28,19.26-1,9.26,3.37,15.71,12.39,17.76,5.93,1.35,12.15,2.01,18.24,2.06,29.29.2,58.6.15,87.9.04,5.2-.02,10.45-.44,15.6-1.18,11.9-1.71,21.15-7.66,27.01-18.29,2.28-4.15,4.46-8.46,5.91-12.95,5.01-15.4,9.66-30.91,14.45-46.38,2.55-8.21,5.19-16.4,5.74-25.07.64-9.99-3.67-16.34-13.42-18.48-4.91-1.08-10.04-1.64-15.07-1.66-29.76-.15-59.52-.1-89.28-.04-4.6.01-9.23.23-13.8.71-14.21,1.51-24.94,8.33-31.11,21.42-2.67,5.68-4.96,11.58-6.9,17.53-3.31,10.13-6.18,20.4-9.29,30.59-.24.77-.89,1.99-1.39,2.01-4.74.15-9.49.09-14.56.09,1.34-4.33,2.57-8.33,3.85-12.47h-15.14c-1.28,4.04-2.56,8.1-3.98,12.59h15.13c-.73,2.5-1.28,4.64-1.99,6.75-.58,1.76-1.31,3.47-1.99,5.21-1.96.13-3.91.33-5.88.37-2.82.07-5.66.02-8.89.02,1.23-4.23,2.37-8.15,3.61-12.44h-15.13c1.07-3.38,2.01-6.37,2.96-9.35,3.72-11.69,7.25-23.45,11.21-35.08,4.7-13.82,11.02-26.85,20.4-38.21,12.21-14.77,28.1-23.27,46.57-27.39,10.77-2.39,21.71-3.42,32.72-3.45,32.84-.07,65.68-.09,98.52.01,11.23.03,22.41.96,33.27,4.21,19.79,5.93,28.96,18.69,28.24,39.39Z"/>
    <path d="M2561.21,815.13h15.03c-6.33,20.42-12.62,40.71-18.97,61.17.63.12.98.24,1.33.25,14.77,0,29.54-.24,44.29.07,13.79.29,24.52-5.35,34.22-14.76,23.05-22.37,46.55-44.29,69.82-66.45,2.68-2.56,5.71-3.65,9.36-3.63,11.84.06,23.69.01,35.53.03,1.82,0,3.96-.34,4.81,1.81.9,2.26-.47,4.02-2.02,5.48-5.21,4.89-10.48,9.72-15.72,14.58-23.46,21.72-46.86,43.5-70.4,65.14-5.3,4.87-11.04,9.26-16.68,13.95,2.02,2.03,4.3,4.08,6.31,6.37,5.49,6.27,8.77,13.86,12.34,21.25,11.05,22.88,22.08,45.77,33.11,68.66,2.13,4.42-.14,8.6-5.04,8.9-4.6.28-9.22.17-13.83.16-8.61-.02-17.22-.12-25.83-.12-2.91,0-4.63-1.33-5.84-3.94-10.58-22.76-21.51-45.36-31.75-68.28-4.45-9.96-11.66-14.46-22.06-14.62-12.68-.2-25.37-.19-38.05-.26-4.15-.02-8.31.06-12.46-.04-1.52-.04-2.13.54-2.55,1.93-7.86,25.85-15.77,51.68-23.66,77.53-1.88,6.17-3.99,7.79-10.45,7.8-9.61.01-19.23.02-28.84,0-6.41-.01-7.77-1.8-5.91-7.87,16.33-53.44,51.64-168.95,52.83-173.31.36-1.33.85-1.89,2.33-1.85,4.53.12,9.07.07,13.61.09l-.08-.09c-1.33,4.11-4.09,12.61-4.09,12.61l14.84-.07s3.32-8.84,4.55-12.52l-.05.05Z"/>
    <path d="M2043.52,803.41c2.74.12,5.48.26,8.22.34,2.07.05,4.14.01,6.62.01-.63,2.18-1.18,4.13-1.74,6.08-.58,1.98-1.16,3.96-1.85,6.29h15.27c-.76,2.49-1.4,4.58-2.04,6.66-9.95,32.34-19.99,64.66-29.78,97.06-1.59,5.25-2.58,10.79-2.99,16.26-.78,10.22,3.8,16.22,13.84,18.32,5,1.04,10.2,1.58,15.31,1.6,39.76.13,79.52.07,119.29.07,6.67,0,7.8,1.54,5.84,7.95-2.71,8.88-5.42,17.76-8.14,26.64-1.72,5.63-3.99,7.4-9.84,7.4-40.22.02-80.45.07-120.67-.02-12.31-.03-24.59-.71-36.48-4.34-9.26-2.83-17.47-7.25-22.73-15.82-4.82-7.86-5.74-16.59-5.28-25.54.72-13.79,4.75-26.86,8.76-39.94,8.33-27.15,16.62-54.32,24.9-81.49,1.3-4.25,2.55-8.51,3.71-12.79.39-1.42,1.01-1.98,2.53-1.95,4.28.1,8.57.04,13.23.04-1.34,4.32-2.58,8.3-3.89,12.5h15.16c1.26-3.98,2.55-8.04,3.94-12.44h-15.21c1.44-4.55,2.76-8.74,4.08-12.92l-.06.05Z"/>
    <path d="M2077.69,791.34c-1.25,3.99-2.36,7.63-3.56,11.24-.15.46-.78,1.09-1.2,1.09-4.73.08-9.46.05-14.46.05,1.24-3.98,2.33-7.63,3.57-11.23.18-.51,1.08-1.09,1.66-1.1,4.52-.09,9.05-.05,13.99-.05Z"/>
    <path d="M2564.77,802.64c1.39-4.34,2.66-8.34,3.94-12.35h15.29c-1.24,3.96-2.4,7.76-3.67,11.53-.13.39-.9.78-1.39.79-4.61.06-9.22.04-14.18.04Z"/>
    <path d="M2549.95,802.44h-15.46c1.23-3.87,2.44-7.75,3.73-11.62.1-.3.69-.6,1.06-.61,4.66-.04,9.31-.03,14.08-.03-1.19,4.25-2.32,8.26-3.44,12.28,0,0,.04-.03.04-.03Z"/>
    <path d="M2043.57,803.36c-2.2.13-4.39.32-6.59.37-2.83.06-5.66.02-8.89.02,1.31-4.09,2.51-7.91,3.77-11.7.1-.31.68-.65,1.03-.66,4.65-.04,9.31-.03,14.16-.03-1.24,4.21-2.4,8.14-3.56,12.07,0,0,.06-.06.06-.06Z"/>
    <path d="M2546.05,815.15c1.3-4.24,2.6-8.47,3.9-12.71,0,0-.04.03-.04.03,4.81,0,9.63,0,14.77,0-1.23,4.48-2.35,8.57-3.47,12.67l.05-.05c-5.1,0-10.19,0-15.29-.01l.08.09Z"/>
  </g>
  <path d="M1737.3,149.59h38.98c-16.43,52.98-32.75,95.31-49.21,148.38,1.64.31,2.54.64,3.44.64,38.3.02,76.62-.61,114.91.19,35.76.75,63.6-13.87,88.78-38.3,59.81-58.04,113.89-104.6,174.25-162.07,6.97-6.63,14.83-9.47,24.29-9.43,30.72.15,68.32.04,99.04.07,4.73,0,10.27-.87,12.48,4.7,2.33,5.86-1.22,10.43-5.25,14.21-13.53,12.68-27.19,25.21-40.79,37.81-60.85,56.36-121.57,112.85-182.63,168.98-13.75,12.64-28.64,24.02-43.27,36.19,5.25,5.26,11.16,10.58,16.37,16.53,14.24,16.26,22.74,35.95,32.01,55.13,28.67,59.35,57.28,118.73,85.89,178.12,5.52,11.46-.35,22.31-13.08,23.08-11.93.72-23.92.43-35.89.4-22.34-.05-44.68-.32-67.01-.3-7.56,0-12-3.46-15.15-10.23-27.45-59.05-55.81-117.68-82.36-177.13-11.54-25.84-30.25-37.51-57.22-37.93-32.9-.51-65.81-.49-98.72-.67-10.77-.06-21.55.17-32.32-.1-3.94-.1-5.53,1.4-6.63,5.01-20.39,67.06-40.92,134.08-61.37,201.12-4.88,15.99-10.36,20.21-27.11,20.23-24.94.03-49.88.04-74.81,0-16.64-.03-20.15-4.67-15.34-20.41,42.37-138.62,133.97-438.29,137.05-449.6.94-3.46,2.21-4.9,6.03-4.8,11.76.31,23.53.19,35.3.23l-.21-.23c-3.46,10.65-10.62,32.7-10.62,32.7l38.49-.18s8.6-22.94,11.8-32.49l-.13.14Z"/>
  <path d="M1746.54,117.18c3.6-11.27,6.91-21.63,10.23-32.04h39.67c-3.23,10.28-6.23,20.14-9.52,29.9-.34,1-2.35,2.03-3.59,2.05-11.95.15-23.91.09-36.79.09Z"/>
  <path d="M1708.09,116.66h-40.1c3.19-10.03,6.34-20.12,9.67-30.14.26-.77,1.8-1.57,2.75-1.58,12.08-.11,24.15-.07,36.51-.07-3.09,11.03-6.01,21.44-8.94,31.85,0,0,.1-.07.1-.07Z"/>
  <path d="M1697.97,149.65c3.37-10.99,6.74-21.98,10.12-32.98,0,0-.1.07-.1.07,12.49,0,24.97,0,38.33,0-3.19,11.63-6.1,22.25-9.01,32.86l.13-.14c-13.22-.01-26.45-.02-39.67-.03l.21.23Z"/>
  <g>
    <path d="M1491.48,96.03c-27.79-8.33-56.4-10.71-85.16-10.78-38.54-.13-413.42-.17-413.42-.17-21.55,0-40.53,14.12-46.73,34.74l-100.63,335.13h0l-31.42,104.63h36.22l9.69-32.27h36.87l-9.69,32.27h36.43l31.42-104.63h-.73l3.64-12.1h269.41c3.75,0,7.21,2.04,9.02,5.33l93.26,169.04c2.34,4.24,6.8,6.88,11.65,6.88h109.55c10.13,0,16.54-10.86,11.65-19.73l-89.12-161.52h19.06c58.98,0,121.26-47.58,138.81-106.07l9.59-31.94h-.09c1.83-5.98,3.65-11.95,5.5-17.92,9.08-29.4,16.44-59.13,17.53-90.04,1.85-52.98-21.62-85.64-72.28-100.84ZM1390.17,334.56h-399.71l43.74-143.45c.17-.57.87-1.06,1.22-1.06,0,0,285.89.2,337.04.45,12.88.07,25.99,1.49,38.57,4.26,24.95,5.49,35.97,21.73,34.35,47.32-1.4,22.22-8.17,43.17-14.69,64.19-.13.42-.26.85-.39,1.27-6.59,16.24-22.4,27.03-40.12,27.03Z"/>
    <polygon points="794.74 624.08 830.96 624.08 840.64 591.84 804.44 591.84 794.74 624.08"/>
    <polygon points="840.64 591.84 877.52 591.84 887.19 559.57 850.33 559.57 840.64 591.84"/>
    <polygon points="904.24 624.08 913.93 591.84 877.52 591.84 867.83 624.08 904.24 624.08"/>
  </g>
  <path d="M776.04,95.83c-19.64-5.91-41.38-8.69-68.38-8.72-28.88-.1-413.35-.14-416.2-.14-22.53,0-42.04,14.49-48.53,36.06l-55.05,183.35h36.06c-3.23,10.17-6.46,20.43-10.03,31.73h38.64c-1.85,6.35-8.41,26.1-10.13,30.53,1.34.03,2.99.03,4.84,0h36.23l-8.62,32.35c42.07.03,315.16.17,348.78.34,9.03.07,17.89,1.03,26.34,2.92,11.95,2.64,16.07,8.45,15.25,21.53-.76,12.12-15.08,50.04-20.23,66.01-1.27,3.92-2.4,7.42-3.3,10.27l-.1.45c-3.06,6.9-9.86,11.33-17.41,11.33H237.21l37.67-112.85h-41.07c2.78-10.47,5.7-21.4,8.62-32.35-5.01.34-9.99.82-15.01.96-7.21.17-14.46.03-22.7.03,3.13-10.78,6.04-20.78,9.2-31.73h-35.48l-8.93,29.74-.62,2.13c.93-.17,1.96-.24,3.16-.21,10.51.34,21.09.1,32.32.1-3.37,10.82-6.49,20.85-9.75,31.32h-34.86l-53.02,176.55c-6.83,22.8,10.23,45.74,34.03,45.74h485.12c50.31,0,103.37-40.42,118.28-90.08l7.25-24.18,1.96-6.59c.69-2.3,1.41-4.6,2.13-6.9,6.32-20.54,12.95-45.16,13.84-71.74.79-22.05-3.81-40.59-13.67-55.36,28.57-16.66,50.76-43.48,59.69-73.22l7.25-24.18,1.89-6.39c.72-2.37,1.44-4.7,2.2-7.07,6.32-20.57,12.95-45.19,13.84-71.78,1.65-46.4-20.06-76.65-64.5-89.98ZM723.46,218.71c-.62,9.86-5.74,29.16-10.37,45.13l-.03.14c-2.4,5.87-6.66,14.87-11.13,23.08-6.53,11.95-19.09,19.33-32.73,19.33h-367.81c-2.58,8.69-5.15,17.38-7.8,26.03-.62,1.96-2.27,5.08-3.54,5.15-12.12.38-24.21.24-37.16.24,3.37-10.92,6.49-20.98,9.68-31.42h38.81l31.8-112.47c42.21.03,315.09.17,348.68.34,9.03.07,17.89,1.03,26.34,2.92,11.95,2.61,16.07,8.45,15.25,21.53Z"/>
  <path class="st0" d="M91.51,719.32h2683.33c1.39,0,2.65-.84,3.18-2.13l14.36-35.04c.93-2.26-.74-4.74-3.18-4.74H105.87c-1.39,0-2.65.84-3.18,2.13l-14.36,35.04c-.93,2.26.74,4.74,3.18,4.74Z"/>
</svg>